<?xml version="1.0" encoding="UTF-8" standalone="no"?>
<!-- Created with Inkscape (http://www.inkscape.org/) -->

<svg
   xmlns:dc="http://purl.org/dc/elements/1.1/"
   xmlns:cc="http://creativecommons.org/ns#"
   xmlns:rdf="http://www.w3.org/1999/02/22-rdf-syntax-ns#"
   xmlns:svg="http://www.w3.org/2000/svg"
   xmlns="http://www.w3.org/2000/svg"
   xmlns:sodipodi="http://sodipodi.sourceforge.net/DTD/sodipodi-0.dtd"
   xmlns:inkscape="http://www.inkscape.org/namespaces/inkscape"
   width="120"
   height="200"
   id="svg2"
   version="1.1"
   inkscape:version="0.48.4 r9939"
   sodipodi:docname="pickaxe-graphic-01.svg">
  <title
     id="title3983">P Is For Pick</title>
  <defs
     id="defs4">
    <filter
       inkscape:collect="always"
       id="filter3967">
      <feGaussianBlur
         inkscape:collect="always"
         stdDeviation="0.17784253"
         id="feGaussianBlur3969" />
    </filter>
  </defs>
  <sodipodi:namedview
     id="base"
     pagecolor="#ffffff"
     bordercolor="#666666"
     borderopacity="1.0"
     inkscape:pageopacity="0.0"
     inkscape:pageshadow="2"
     inkscape:zoom="0.98994949"
     inkscape:cx="70.239888"
     inkscape:cy="148.09288"
     inkscape:document-units="px"
     inkscape:current-layer="g105"
     showgrid="false"
     inkscape:window-width="990"
     inkscape:window-height="878"
     inkscape:window-x="1101"
     inkscape:window-y="488"
     inkscape:window-maximized="0"
     showborder="true"
     inkscape:snap-page="true"
     width="145px">
    <sodipodi:guide
       position="0,0"
       orientation="0,130.56"
       id="guide3183" />
    <sodipodi:guide
       position="130.56,0"
       orientation="-351.64001,0"
       id="guide3185" />
    <sodipodi:guide
       position="130.56,351.64001"
       orientation="0,-130.56"
       id="guide3187" />
    <sodipodi:guide
       position="0,351.64001"
       orientation="351.64001,0"
       id="guide3189" />
    <sodipodi:guide
       position="0,0"
       orientation="0,130.56"
       id="guide3191" />
    <sodipodi:guide
       position="130.56,0"
       orientation="-351.64001,0"
       id="guide3193" />
    <sodipodi:guide
       position="130.56,351.64001"
       orientation="0,-130.56"
       id="guide3195" />
    <sodipodi:guide
       position="0,351.64001"
       orientation="351.64001,0"
       id="guide3197" />
  </sodipodi:namedview>
  <g
     inkscape:label="Layer 1"
     inkscape:groupmode="layer"
     id="layer1"
     transform="translate(734.72522,-841.50067)">
    <g
       id="g8132"
       transform="translate(-14.152288,163.65487)">
      <g
         style="fill:none;stroke:#000000;stroke-width:17.61953735;stroke-miterlimit:4;stroke-dasharray:none"
         id="g1875"
         inkscape:export-filename="/home/lamatin/Desktop/krumpac.png"
         inkscape:export-xdpi="90"
         inkscape:export-ydpi="90"
         transform="matrix(0.22702072,0,0,0.22702072,-748.465,674.27008)">
        <path
           id="path5602"
           d="m 373.52468,382.73437 c -1.71503,4.6337 -9.79713,25.2692 -11.75867,31.16944 -1.96151,5.90022 -34.26899,79.97836 -34.26899,79.97836 l -29.19728,95.7008 -71.00794,272.92188 -9.74474,4.10953 -12.13641,-12.84879 -6.76578,-19.55256 20.90009,-86.49457 57.5238,-232.88679 c 0,0 26.21282,-168.10661 27.69182,-175.70574 1.479,-7.59913 8.60654,-35.86436 8.60654,-35.86436 l 16.46862,32.37077 28.38994,33.79028 15.299,13.31175 z"
           style="fill:none;stroke:#000000;stroke-width:17.61953735;stroke-linecap:butt;stroke-linejoin:miter;stroke-miterlimit:4;stroke-opacity:1;stroke-dasharray:none"
           inkscape:connector-curvature="0" />
        <path
           id="path5604"
           d="m 330.86861,213.33864 c 0,0 -1.00696,13.52996 -0.0524,21.15966 0.95457,7.62971 20.31831,50.19384 23.96344,52.35571 3.6451,2.16186 32.32348,17.75786 35.48606,18.22085 3.16258,0.46294 13.40033,-6.17963 13.40033,-6.17963 l 3.451,-17.7313 c 0,0 -2.37071,-25.4222 -5.51233,-34.34902 -3.14164,-8.92683 -13.07002,-28.94237 -20.36024,-33.2661 -7.29023,-4.32373 -25.76228,-13.86654 -25.76228,-13.86654 l -15.58739,4.88251 -9.02619,8.77386 z"
           style="fill:none;stroke:#000000;stroke-width:17.61953735;stroke-linecap:butt;stroke-linejoin:miter;stroke-miterlimit:4;stroke-opacity:1;stroke-dasharray:none"
           inkscape:connector-curvature="0" />
        <path
           sodipodi:nodetypes="cccccccccccccscccccccccccccccc"
           id="path5606"
           d="m 190.51862,86.304861 -46.87745,61.198769 69.52455,31.34501 64.88296,38.48116 13.14337,-0.68116 7.07514,-7.10556 9.92838,20.01554 9.91791,24.24748 -5.65903,24.89801 -1.28488,27.4923 20.37071,29.03414 24.01581,31.19604 19.42663,17.17252 c 0,0 9.2727,-10.04036 13.17479,-13.37696 l 12.97018,-29.03817 19.90915,18.8714 53.09227,80.09854 69.55824,107.3195 L 499.33503,424.46481 423.11361,307.60387 415.10484,298.61585 408.36,270.59942 397.25153,235.7568 385.6186,216.14305 353.77764,200.08406 342.34931,196.13151 326.54685,189.58473 315.64296,170.40332 310.09919,148.75009 190.51862,86.304861 z"
           style="fill:none;stroke:#000000;stroke-width:17.61953735;stroke-linecap:butt;stroke-linejoin:miter;stroke-miterlimit:4;stroke-opacity:1;stroke-dasharray:none"
           inkscape:connector-curvature="0" />
      </g>
    </g>
    <g
       transform="translate(-881.71911,926.85683)"
       id="g99">
      <g
         id="g101"
         transform="translate(-2.0203051,1.0101525)">
        <g
           id="g105"
           transform="translate(-25.253813,126.26907)">
          <g
             id="g107"
             transform="translate(11.111678,-133.34013)"
             style="fill:#000000;fill-opacity:1;filter:url(#filter3967)">
            <path
               inkscape:connector-curvature="0"
               d="m 241.91,70.689 c 0.637,-4.258 -2.605,-6.547 -7.038,-8.074 l 1.438,-5.768 -3.511,-0.875 -1.4,5.616 c -0.923,-0.23 -1.871,-0.447 -2.813,-0.662 l 1.41,-5.653 -3.509,-0.875 -1.439,5.766 c -0.764,-0.174 -1.514,-0.346 -2.242,-0.527 l 0.004,-0.018 -4.842,-1.209 -0.934,3.75 c 0,0 2.605,0.597 2.55,0.634 1.422,0.355 1.679,1.296 1.636,2.042 l -1.638,6.571 c 0.098,0.025 0.225,0.061 0.365,0.117 -0.117,-0.029 -0.242,-0.061 -0.371,-0.092 l -2.296,9.205 c -0.174,0.432 -0.615,1.08 -1.609,0.834 0.035,0.051 -2.552,-0.637 -2.552,-0.637 l -1.743,4.019 4.569,1.139 c 0.85,0.213 1.683,0.436 2.503,0.646 l -1.453,5.834 3.507,0.875 1.439,-5.772 c 0.958,0.26 1.888,0.5 2.798,0.726 l -1.434,5.745 3.511,0.875 1.453,-5.823 c 5.987,1.133 10.489,0.676 12.384,-4.739 1.527,-4.36 -0.076,-6.875 -3.226,-8.515 2.294,-0.529 4.022,-2.038 4.483,-5.155 z m -8.022,11.249 c -1.085,4.36 -8.426,2.003 -10.806,1.412 l 1.928,-7.729 c 2.38,0.594 10.012,1.77 8.878,6.317 z m 1.086,-11.312 c -0.99,3.966 -7.1,1.951 -9.082,1.457 l 1.748,-7.01 c 1.982,0.494 8.365,1.416 7.334,5.553 z"
               id="path109"
               style="fill:#000000;fill-opacity:1" />
          </g>
          <path
             style="fill:#ffff00;fill-opacity:1"
             d=""
             id="path3971"
             inkscape:connector-curvature="0"
             transform="translate(174.26801,-212.63538)" />
          <path
             style="fill:#d7cbab;fill-opacity:1"
             d="m 20.338352,186.09423 c 0,-1.42314 3.825815,-18.15223 8.501811,-37.17573 5.201502,-21.16144 9.778625,-42.64355 11.790968,-55.339333 l 3.289158,-20.751143 4.918462,5.910132 4.918462,5.910131 -4.970896,11.86318 c -6.125949,14.619743 -9.906752,27.030263 -19.385639,63.633503 -6.799674,26.25732 -9.062326,32.73624 -9.062326,25.94926 z"
             id="path3973"
             inkscape:connector-curvature="0"
             transform="translate(174.26801,-212.63538)" />
        </g>
      </g>
    </g>
  </g>
  <metadata
     id="metadata3051">
    <rdf:RDF>
      <cc:Work>
        <dc:format>image/svg+xml</dc:format>
        <dc:type
           rdf:resource="http://purl.org/dc/dcmitype/StillImage" />
        <cc:license
           rdf:resource="http://creativecommons.org/licenses/publicdomain/" />
        <dc:publisher>
          <cc:Agent
             rdf:about="http://openclipart.org/">
            <dc:title>Open Clip Art Library</dc:title>
          </cc:Agent>
        </dc:publisher>
        <dc:title>P Is For Pick</dc:title>
        <dc:date>2010-10-05T23:46:24</dc:date>
        <dc:description>Outlines of an uppercase and lowercase letter p, with a pick for coloring. Typeface is Let's Trace (public domain).</dc:description>
        <dc:source>http://openclipart.org/detail/88801/p-is-for-pick-by-mazeo</dc:source>
        <dc:creator>
          <cc:Agent>
            <dc:title>mazeo</dc:title>
          </cc:Agent>
        </dc:creator>
        <dc:subject>
          <rdf:Bag>
            <rdf:li>alphabet</rdf:li>
            <rdf:li>clip art</rdf:li>
            <rdf:li>clipart</rdf:li>
            <rdf:li>coloring book</rdf:li>
            <rdf:li>colouring book</rdf:li>
            <rdf:li>letter P</rdf:li>
            <rdf:li>pick</rdf:li>
            <rdf:li>remix</rdf:li>
          </rdf:Bag>
        </dc:subject>
      </cc:Work>
      <cc:License
         rdf:about="http://creativecommons.org/licenses/publicdomain/">
        <cc:permits
           rdf:resource="http://creativecommons.org/ns#Reproduction" />
        <cc:permits
           rdf:resource="http://creativecommons.org/ns#Distribution" />
        <cc:permits
           rdf:resource="http://creativecommons.org/ns#DerivativeWorks" />
      </cc:License>
    </rdf:RDF>
  </metadata>
</svg>
